<svg xmlns="http://www.w3.org/2000/svg" width="1024" height="1024" viewBox="0 0 1024 1024">
  <defs>
    <linearGradient id="surface" x1="116" y1="88" x2="902" y2="950" gradientUnits="userSpaceOnUse">
      <stop stop-color="#172B52"/>
      <stop offset="0.48" stop-color="#0D2040"/>
      <stop offset="1" stop-color="#07162C"/>
    </linearGradient>
    <linearGradient id="active" x1="376" y1="386" x2="425" y2="471" gradientUnits="userSpaceOnUse">
      <stop stop-color="#72F0A4"/>
      <stop offset="1" stop-color="#2BCB80"/>
    </linearGradient>
    <linearGradient id="greenBar" x1="701" y1="0" x2="826" y2="0" gradientUnits="userSpaceOnUse">
      <stop stop-color="#48E18A"/>
      <stop offset="1" stop-color="#4ADE80"/>
    </linearGradient>
    <filter id="tileShadow" x="-10%" y="-10%" width="120%" height="120%">
      <feGaussianBlur in="SourceAlpha" stdDeviation="13"/>
      <feOffset dy="13"/>
      <feComponentTransfer><feFuncA type="linear" slope="0.32"/></feComponentTransfer>
      <feMerge><feMergeNode/><feMergeNode in="SourceGraphic"/></feMerge>
    </filter>
    <filter id="activeGlow" x="-45%" y="-45%" width="190%" height="190%">
      <feGaussianBlur in="SourceGraphic" stdDeviation="13" result="blur"/>
      <feColorMatrix in="blur" type="matrix" values="0 0 0 0 0.16  0 0 0 0 0.78  0 0 0 0 0.48  0 0 0 .40 0"/>
      <feMerge><feMergeNode/><feMergeNode in="SourceGraphic"/></feMerge>
    </filter>
  </defs>

  <rect x="46" y="46" width="932" height="932" rx="205" fill="#020913" opacity="0.7" filter="url(#tileShadow)"/>
  <rect x="54" y="42" width="916" height="916" rx="198" fill="url(#surface)" stroke="#324A76" stroke-width="3"/>
  <rect x="77" y="65" width="870" height="870" rx="177" fill="none" stroke="#7D96C3" stroke-opacity="0.10" stroke-width="2"/>

  <g fill="#60718F">
    <rect x="202" y="263" width="84" height="84" rx="17"/>
    <rect x="327" y="263" width="84" height="84" rx="17"/>
    <rect x="452" y="263" width="84" height="84" rx="17"/>
    <rect x="202" y="388" width="84" height="84" rx="17"/>
    <rect x="452" y="388" width="84" height="84" rx="17"/>
    <rect x="202" y="513" width="84" height="84" rx="17"/>
    <rect x="327" y="513" width="84" height="84" rx="17"/>
    <rect x="452" y="513" width="84" height="84" rx="17"/>
  </g>
  <g opacity="0.42">
    <rect x="206" y="267" width="76" height="76" rx="14" fill="#7F92B2"/>
    <rect x="331" y="267" width="76" height="76" rx="14" fill="#7F92B2"/>
    <rect x="456" y="267" width="76" height="76" rx="14" fill="#7F92B2"/>
    <rect x="206" y="392" width="76" height="76" rx="14" fill="#7F92B2"/>
    <rect x="456" y="392" width="76" height="76" rx="14" fill="#7F92B2"/>
    <rect x="206" y="517" width="76" height="76" rx="14" fill="#7F92B2"/>
    <rect x="331" y="517" width="76" height="76" rx="14" fill="#7F92B2"/>
    <rect x="456" y="517" width="76" height="76" rx="14" fill="#7F92B2"/>
  </g>
  <rect x="327" y="388" width="84" height="84" rx="17" fill="url(#active)" filter="url(#activeGlow)"/>
  <rect x="332" y="393" width="74" height="74" rx="14" fill="#55E695" opacity="0.34"/>

  <path d="M592 257V604" stroke="#7288AD" stroke-opacity="0.62" stroke-width="5" stroke-linecap="round"/>
  <g>
    <circle cx="662" cy="306" r="17" fill="#49E18A"/>
    <rect x="700" y="289" width="143" height="34" rx="17" fill="url(#greenBar)"/>
    <circle cx="662" cy="386" r="17" fill="#35CDEA"/>
    <rect x="700" y="369" width="143" height="34" rx="17" fill="#35CDEA"/>
    <circle cx="662" cy="466" r="17" fill="#329CF4"/>
    <rect x="700" y="449" width="143" height="34" rx="17" fill="#329CF4"/>
    <circle cx="662" cy="546" r="17" fill="#9366F7"/>
    <rect x="700" y="529" width="143" height="34" rx="17" fill="#9366F7"/>
  </g>
</svg>
